# xmcd CD database file
#
# Track frame offsets:
#	150
#	11988
#	24217
#	35856
#	48924
#	61128
#	72312
#	83501
#	96199
#	109120
#	122287
#	134949
#	147036
#	159117
#	171363
#	184355
#	196475
#	209281
#	220737
#	233354
#	245766
#	257993
#	271284
#	283585
#	296867
#	309009
#	319190
#
# Disc length: 4442 seconds
#
# Revision: 1
# Processed by: cddbd v1.4b42PL1 Copyright (c) Steve Scherf et al.
# Submitted via: CDex 1.40Beta6
#
DISCID=8d11581b
DTITLE=Various Artist - Detroit in the 50's vol.03
DYEAR=1900
DGENRE=Country
TTITLE0=Who's Naughty Baby Are You
TTITLE1=My Wife And Sweetheart Too
TTITLE2=Tennessee Avenue
TTITLE3=Kentucky Highway
TTITLE4=Okee Doaks!
TTITLE5=I Got My Eyes On You
TTITLE6=She Started Teasing Me
TTITLE7=Skid Row Boogie
TTITLE8=Sitting On Top Of The World
TTITLE9=If The Blues Don't Kill Me
TTITLE10=Handy Man
TTITLE11=Tennessee Boogie (inst.)
TTITLE12=Baby Doll
TTITLE13=New Set Of Blues
TTITLE14=I Don't Mean A Thing To You
TTITLE15=Reckon As How I Love You
TTITLE16=Running From The Blues
TTITLE17=Honky Tonkin' Blues
TTITLE18=I Won't Confess I'm Sorry
TTITLE19=The Southland Boogie (alt. take)
TTITLE20=The Tattooed Lady (original version)
TTITLE21=On Down The Line
TTITLE22=Drunk Man's Wiggle
TTITLE23=I'm Going Back To West Virginia
TTITLE24=In A Broken Heart No Love Is Found
TTITLE25=At The Burlesque Show
TTITLE26=Joe's Mandolin Boogie
EXTD=
EXTT0=
EXTT1=
EXTT2=
EXTT3=
EXTT4=
EXTT5=
EXTT6=
EXTT7=
EXTT8=
EXTT9=
EXTT10=
EXTT11=
EXTT12=
EXTT13=
EXTT14=
EXTT15=
EXTT16=
EXTT17=
EXTT18=
EXTT19=
EXTT20=
EXTT21=
EXTT22=
EXTT23=
EXTT24=
EXTT25=
EXTT26=
PLAYORDER=
